<?xml version="1.0" encoding="utf-8"?>
<!-- Generator: Adobe Illustrator 28.2.0, SVG Export Plug-In . SVG Version: 6.00 Build 0)  -->
<svg version="1.1" id="Calque_2_00000127725856762983794460000005879198741996406458_"
	 xmlns="http://www.w3.org/2000/svg" xmlns:xlink="http://www.w3.org/1999/xlink" x="0px" y="0px" viewBox="0 0 36.2 58.9"
	 style="enable-background:new 0 0 36.2 58.9;" xml:space="preserve">
<style type="text/css">
	.st0{fill:none;stroke:#000000;stroke-width:3;stroke-miterlimit:10;}
	.st1{fill:none;stroke:#000000;stroke-width:2.7;stroke-miterlimit:10;}
</style>
<g id="Calque_1-2">
	<line class="st0" x1="18.1" y1="3.2" x2="18.1" y2="41.5"/>
	<path class="st0" d="M34.7,0.6v43.7c-1.3,7.1-8.9,13-16.5,13.2"/>
	<path class="st0" d="M18.1,45.9c2.6,0,5.5-1.7,5.5-4.3V0.3"/>
	<path class="st0" d="M1.5,0.7v43.7c1.3,7.1,8.9,12.9,16.6,13"/>
	<path class="st0" d="M18.1,45.9c-2.6,0-5.6-1.6-5.6-4.2V0.4"/>
	<line class="st1" x1="0" y1="1.4" x2="14" y2="1.4"/>
	<path class="st1" d="M22.1,1.4h14H22.1z"/>
</g>
<path class="st0" d="M13.3,43.8c4.1,3.9,7.7,1.7,9.6,0"/>
<path class="st0" d="M2.3,47.2c15,22.2,33,2.2,32.2-2.3"/>
</svg>
