<?xml version="1.0" encoding="utf-8"?>
<!-- Generator: Adobe Illustrator 28.4.1, SVG Export Plug-In . SVG Version: 6.00 Build 0)  -->
<svg version="1.1" id="Layer_1" xmlns="http://www.w3.org/2000/svg" xmlns:xlink="http://www.w3.org/1999/xlink" x="0px" y="0px"
	 viewBox="0 0 1080 350" enable-background="new 0 0 1080 350" xml:space="preserve">
<g>
	<g>
		<path fill="#0057AC" d="M113.14,306.73c41.4,0,75.23-35.59,75.23-80.19l0.03-172.53v-3.15h-3.61h-40.58h-3.6v3.15v180.66
			c0,19.37-13.94,28.38-27.45,28.38c-13.52,0-27.45-9.01-27.45-28.38V54.01v-3.15h-3.6H41.52h-3.61v3.15l0.02,172.53
			C37.93,271.15,71.75,306.73,113.14,306.73"/>
	</g>
	<path fill="#4998D3" d="M115.53,249.5h-4.92V58.78h4.92V249.5z M128.49,245.37h-4.92V58.83h4.92V245.37z M102.37,245.37h-4.92
		V58.78h4.92V245.37z"/>
	<g>
		<path d="M313.49,137.66c-3.03,3.64-7.49,5.51-13.37,5.6l-26.18,0.42c0.19-1.21,0.3-2.71,0.35-4.48c0.05-1.77,0.07-3.92,0.07-6.44
			V72.7c0-3.36,0.07-6.3,0.21-8.82c0.14-2.52,0.89-4.53,2.24-6.02c1.35-1.49,3.76-2.29,7.21-2.38v-4.62h-31.5v6.16
			c1.68-0.09,3.36-0.19,5.04-0.28c1.68-0.09,3.36-0.19,5.04-0.28c-0.09,1.4-0.19,2.96-0.28,4.69s-0.14,3.52-0.14,5.39v60.48
			c0,3.27-0.07,6.18-0.21,8.75c-0.14,2.57-0.86,4.57-2.17,6.02c-1.31,1.45-3.73,2.26-7.28,2.45v4.62h69.44l0.84-28.98h-4.76
			C318.04,128.09,316.52,134.02,313.49,137.66z"/>
		<path d="M342.75,146.55c5.18,3.03,10.99,4.55,17.43,4.55c3.17,0,6.63-0.51,10.36-1.54c3.73-1.03,7.37-2.71,10.92-5.04
			c3.55-2.33,6.58-5.46,9.1-9.38l-3.36-2.8c-1.59,2.15-3.69,4.11-6.3,5.88s-5.44,3.17-8.47,4.2s-6,1.54-8.89,1.54
			c-5.41,0-9.85-1.47-13.3-4.41c-3.45-2.94-5.95-7.09-7.49-12.46c-1.54-5.37-2.31-11.6-2.31-18.69l49.28-0.84
			c0-5.23-0.75-9.78-2.24-13.65s-3.55-7.09-6.16-9.66c-2.61-2.57-5.62-4.48-9.03-5.74c-3.41-1.26-7.07-1.89-10.99-1.89
			c-7,0-13.16,1.75-18.48,5.25s-9.45,8.1-12.39,13.79s-4.41,11.81-4.41,18.34c0,7.56,1.49,14.12,4.48,19.67
			C333.48,139.22,337.57,143.52,342.75,146.55z M347.93,86.91c3.59-3.22,8.1-4.83,13.51-4.83c3.64,0,6.58,1,8.82,3.01
			c2.24,2.01,3.85,4.57,4.83,7.7c0.98,3.13,1.47,6.37,1.47,9.73h-35.7C341.98,95.33,344.33,90.13,347.93,86.91z"/>
		<path d="M429.9,144.45c-2.33,0.79-4.71,1.19-7.14,1.19c-3.55,0-6.86-0.84-9.94-2.52c-3.08-1.68-5.6-4.04-7.56-7.07
			c-1.96-3.03-3.03-6.46-3.22-10.29h-4.34l0.84,24.08h5.88l-0.56-4.9c2.33,1.59,5.32,3.01,8.96,4.27c3.64,1.26,7.79,1.89,12.46,1.89
			c4.01,0,7.86-0.72,11.55-2.17s6.72-3.71,9.1-6.79c2.38-3.08,3.57-6.95,3.57-11.62c0-4.2-1.07-7.63-3.22-10.29s-4.9-4.88-8.26-6.65
			c-3.36-1.77-6.81-3.41-10.36-4.9c-3.27-1.31-6.35-2.66-9.24-4.06c-2.89-1.4-5.25-3.06-7.07-4.97s-2.73-4.32-2.73-7.21
			c0-2.8,1.21-5.27,3.64-7.42c2.43-2.15,5.79-3.22,10.08-3.22c4.01,0,7.28,1,9.8,3.01s4.43,4.53,5.74,7.56s2.05,6.18,2.24,9.45h4.48
			v-24.5h-5.88l0.28,5.32c-2.89-2.33-5.88-3.92-8.96-4.76s-5.88-1.26-8.4-1.26c-4.76,0-8.68,0.68-11.76,2.03
			c-3.08,1.35-5.51,3.08-7.28,5.18s-3.03,4.32-3.78,6.65s-1.12,4.48-1.12,6.44c0,3.55,0.7,6.53,2.1,8.96s3.29,4.48,5.67,6.16
			c2.38,1.68,4.97,3.13,7.77,4.34s5.6,2.38,8.4,3.5c2.89,1.12,5.6,2.33,8.12,3.64s4.55,2.82,6.09,4.55c1.54,1.73,2.31,3.9,2.31,6.51
			c0,2.52-0.79,4.6-2.38,6.23C434.19,142.44,432.23,143.66,429.9,144.45z"/>
		<path d="M304.81,224.96c-4.81-2.89-10.2-4.34-16.17-4.34c-4.29,0-8.24,0.72-11.83,2.17s-6.7,3.48-9.31,6.09v-41.72h-4.06
			c-0.65,0.65-1.56,1.26-2.73,1.82c-1.17,0.56-2.89,1.03-5.18,1.4c-2.29,0.37-5.48,0.56-9.59,0.56v5.88
			c1.68-0.09,3.34-0.19,4.97-0.28s3.29-0.19,4.97-0.28c-0.19,1.87-0.3,3.48-0.35,4.83s-0.07,2.78-0.07,4.27l-0.28,87.5h4.9l3.36-6.3
			c2.99,3.36,6.37,5.62,10.15,6.79s7.26,1.75,10.43,1.75c6.35,0,12.27-1.59,17.78-4.76s9.99-7.68,13.44-13.51
			c3.45-5.83,5.18-12.72,5.18-20.65c0-7.28-1.4-13.58-4.2-18.9C313.42,231.96,309.62,227.85,304.81,224.96z M303.27,275.15
			c-1.82,4.43-4.36,7.91-7.63,10.43c-3.27,2.52-7.14,3.78-11.62,3.78c-2.8,0-5.46-0.51-7.98-1.54c-2.52-1.03-4.57-2.87-6.16-5.53
			s-2.38-6.46-2.38-11.41v-35.42c2.15-2.43,4.74-4.36,7.77-5.81s6.09-2.17,9.17-2.17c4.85,0,8.87,1.38,12.04,4.13
			s5.55,6.53,7.14,11.34c1.59,4.81,2.38,10.38,2.38,16.73C306,265.56,305.09,270.72,303.27,275.15z"/>
		<path d="M340.44,190.94c-1.96,0-3.71,0.82-5.25,2.45c-1.54,1.63-2.31,3.62-2.31,5.95s0.75,4.29,2.24,5.88
			c1.49,1.59,3.22,2.38,5.18,2.38c2.05,0,3.85-0.79,5.39-2.38c1.54-1.59,2.31-3.55,2.31-5.88s-0.72-4.32-2.17-5.95
			C344.38,191.76,342.58,190.94,340.44,190.94z"/>
		<path d="M346.6,287.54c0.28-1.59,0.44-3.1,0.49-4.55c0.05-1.45,0.07-3.1,0.07-4.97v-56.56h-4.06c-0.65,0.65-1.56,1.26-2.73,1.82
			c-1.17,0.56-2.87,1.03-5.11,1.4s-5.41,0.56-9.52,0.56v5.88c1.68-0.09,3.34-0.19,4.97-0.28s3.29-0.19,4.97-0.28
			c-0.19,1.87-0.33,3.48-0.42,4.83c-0.09,1.35-0.14,2.78-0.14,4.27v31.92c0,3.36-0.09,6.32-0.28,8.89s-0.84,4.57-1.96,6.02
			c-1.12,1.45-3.13,2.17-6.02,2.17v4.2h28.56v-5.74c-1.49,0.09-2.96,0.16-4.41,0.21C349.56,287.38,348.09,287.45,346.6,287.54z"/>
		<path d="M414.43,224.96c-4.81-2.89-10.2-4.34-16.17-4.34c-4.29,0-8.24,0.72-11.83,2.17s-6.7,3.48-9.31,6.09v-41.72h-4.06
			c-0.65,0.65-1.56,1.26-2.73,1.82c-1.17,0.56-2.89,1.03-5.18,1.4c-2.29,0.37-5.48,0.56-9.59,0.56v5.88
			c1.68-0.09,3.34-0.19,4.97-0.28s3.29-0.19,4.97-0.28c-0.19,1.87-0.3,3.48-0.35,4.83c-0.05,1.35-0.07,2.78-0.07,4.27l-0.28,87.5
			h4.9l3.36-6.3c2.99,3.36,6.37,5.62,10.15,6.79s7.26,1.75,10.43,1.75c6.35,0,12.27-1.59,17.78-4.76s9.99-7.68,13.44-13.51
			c3.45-5.83,5.18-12.72,5.18-20.65c0-7.28-1.4-13.58-4.2-18.9C423.04,231.96,419.23,227.85,414.43,224.96z M412.89,275.15
			c-1.82,4.43-4.36,7.91-7.63,10.43c-3.27,2.52-7.14,3.78-11.62,3.78c-2.8,0-5.46-0.51-7.98-1.54c-2.52-1.03-4.57-2.87-6.16-5.53
			s-2.38-6.46-2.38-11.41v-35.42c2.15-2.43,4.74-4.36,7.77-5.81s6.09-2.17,9.17-2.17c4.85,0,8.87,1.38,12.04,4.13
			s5.55,6.53,7.14,11.34c1.59,4.81,2.38,10.38,2.38,16.73C415.62,265.56,414.71,270.72,412.89,275.15z"/>
		<path d="M454.82,287.54c0.28-1.59,0.47-3.1,0.56-4.55c0.09-1.45,0.14-3.1,0.14-4.97l-0.14-90.86h-4.06
			c-0.65,0.65-1.56,1.26-2.73,1.82c-1.17,0.56-2.89,1.03-5.18,1.4c-2.29,0.37-5.48,0.56-9.59,0.56v5.88
			c1.68-0.09,3.34-0.19,4.97-0.28s3.29-0.19,4.97-0.28c-0.19,1.87-0.3,3.48-0.35,4.83c-0.05,1.35-0.07,2.78-0.07,4.27v66.22
			c0,3.36-0.09,6.32-0.28,8.89s-0.84,4.57-1.96,6.02c-1.12,1.45-3.13,2.17-6.02,2.17v4.2h28.56v-5.74
			c-1.49,0.09-2.96,0.16-4.41,0.21C457.78,287.38,456.31,287.45,454.82,287.54z"/>
		<path d="M488.69,287.54c0.28-1.59,0.44-3.1,0.49-4.55c0.05-1.45,0.07-3.1,0.07-4.97v-56.56h-4.06c-0.65,0.65-1.56,1.26-2.73,1.82
			c-1.17,0.56-2.87,1.03-5.11,1.4s-5.41,0.56-9.52,0.56v5.88c1.68-0.09,3.34-0.19,4.97-0.28s3.29-0.19,4.97-0.28
			c-0.19,1.87-0.33,3.48-0.42,4.83c-0.09,1.35-0.14,2.78-0.14,4.27v31.92c0,3.36-0.09,6.32-0.28,8.89s-0.84,4.57-1.96,6.02
			c-1.12,1.45-3.13,2.17-6.02,2.17v4.2h28.56v-5.74c-1.49,0.09-2.96,0.16-4.41,0.21C491.66,287.38,490.19,287.45,488.69,287.54z"/>
		<path d="M482.39,207.6c2.05,0,3.85-0.79,5.39-2.38c1.54-1.59,2.31-3.55,2.31-5.88s-0.72-4.32-2.17-5.95
			c-1.45-1.63-3.24-2.45-5.39-2.45c-1.96,0-3.71,0.82-5.25,2.45c-1.54,1.63-2.31,3.62-2.31,5.95s0.75,4.29,2.24,5.88
			C478.71,206.81,480.43,207.6,482.39,207.6z"/>
		<path d="M555.19,225.31c-5.32-3.13-11.25-4.69-17.78-4.69c-6.63,0-12.6,1.7-17.92,5.11s-9.52,8.05-12.6,13.93
			c-3.08,5.88-4.62,12.51-4.62,19.88c0,6.91,1.56,13.04,4.69,18.41s7.35,9.57,12.67,12.6s11.25,4.55,17.78,4.55
			c6.63,0,12.6-1.73,17.92-5.18c5.32-3.45,9.54-8.14,12.67-14.07c3.12-5.93,4.69-12.48,4.69-19.67c0-6.81-1.59-12.88-4.76-18.2
			S560.51,228.44,555.19,225.31z M556.52,274.38c-1.26,4.48-3.34,8.12-6.23,10.92s-6.81,4.2-11.76,4.2s-9.05-1.63-12.32-4.9
			s-5.69-7.49-7.28-12.67c-1.59-5.18-2.38-10.66-2.38-16.45c0-5.13,0.72-9.94,2.17-14.42s3.71-8.12,6.79-10.92s7.05-4.2,11.9-4.2
			c3.73,0,6.93,0.98,9.59,2.94s4.83,4.6,6.51,7.91s2.92,7,3.71,11.06c0.79,4.06,1.19,8.19,1.19,12.39
			C558.41,265.19,557.78,269.9,556.52,274.38z"/>
		<path d="M622.67,278.72c-1.77,2.61-3.8,4.67-6.09,6.16c-2.29,1.49-4.74,2.24-7.35,2.24c-2.52,0-4.57-0.75-6.16-2.24
			c-1.59-1.49-2.73-3.71-3.43-6.65s-1.05-6.51-1.05-10.71l0.28-38.92l23.52-0.28v-5.46h-23.52v-19.6h-4.76
			c-0.75,3.55-2.12,6.81-4.13,9.8s-4.27,5.34-6.79,7.07c-2.52,1.73-4.99,2.64-7.42,2.73v6.02l10.78-0.14l-0.28,40.6
			c0,5.6,0.56,10.1,1.68,13.51s2.64,6,4.55,7.77s3.99,2.96,6.23,3.57c2.24,0.61,4.43,0.91,6.58,0.91c1.12,0,2.47-0.12,4.06-0.35
			s3.31-0.79,5.18-1.68c1.87-0.89,3.8-2.22,5.81-3.99s4.04-4.2,6.09-7.28L622.67,278.72z"/>
		<path d="M692.25,287.54c0.28-1.59,0.44-3.1,0.49-4.55c0.05-1.45,0.07-3.1,0.07-4.97l-0.14-26.04
			c-0.09-10.73-1.94-18.64-5.53-23.73s-9.45-7.63-17.57-7.63c-2.61,0-5.3,0.42-8.05,1.26s-5.41,1.94-7.98,3.29
			c-2.57,1.35-4.88,2.92-6.93,4.69v-42.7h-4.06c-0.65,0.65-1.56,1.26-2.73,1.82c-1.17,0.56-2.89,1.03-5.18,1.4s-5.48,0.56-9.59,0.56
			v5.88c1.68-0.09,3.34-0.19,4.97-0.28c1.63-0.09,3.29-0.19,4.97-0.28c-0.19,1.87-0.3,3.48-0.35,4.83s-0.07,2.78-0.07,4.27v66.22
			c0,3.36-0.12,6.32-0.35,8.89s-0.91,4.57-2.03,6.02c-1.12,1.45-3.13,2.17-6.02,2.17v4.2h28.56v-5.74
			c-1.49,0.09-2.96,0.16-4.41,0.21c-1.45,0.05-2.92,0.12-4.41,0.21c0.28-1.59,0.47-3.1,0.56-4.55c0.09-1.45,0.14-3.1,0.14-4.97
			v-41.3c2.05-2.52,4.74-4.57,8.05-6.16s6.7-2.43,10.15-2.52c5.51-0.09,9.54,1.87,12.11,5.88c2.57,4.01,3.85,10.03,3.85,18.06v19.6
			c0,3.36-0.09,6.32-0.28,8.89s-0.84,4.57-1.96,6.02c-1.12,1.45-3.13,2.17-6.02,2.17v4.2h28.56v-5.74
			c-1.49,0.09-2.96,0.16-4.41,0.21C695.21,287.38,693.74,287.45,692.25,287.54z"/>
		<path d="M730.61,196.82l15.68,14.84l3.92-3.22l-11.76-18.9c-1.31-2.15-2.61-3.38-3.92-3.71s-2.43-0.28-3.36,0.14
			s-1.54,0.72-1.82,0.91c-0.37,0.28-0.82,0.89-1.33,1.82c-0.51,0.93-0.65,2.1-0.42,3.5S728.84,195.14,730.61,196.82z"/>
		<path d="M760.43,282.22c-2.61,1.77-5.44,3.17-8.47,4.2c-3.03,1.03-6,1.54-8.89,1.54c-5.41,0-9.85-1.47-13.3-4.41
			s-5.95-7.09-7.49-12.46s-2.31-11.6-2.31-18.69l49.28-0.84c0-5.23-0.75-9.78-2.24-13.65s-3.55-7.09-6.16-9.66s-5.62-4.48-9.03-5.74
			c-3.41-1.26-7.07-1.89-10.99-1.89c-7,0-13.16,1.75-18.48,5.25s-9.45,8.1-12.39,13.79c-2.94,5.69-4.41,11.81-4.41,18.34
			c0,7.56,1.49,14.12,4.48,19.67c2.99,5.55,7.07,9.85,12.25,12.88s10.99,4.55,17.43,4.55c3.17,0,6.63-0.51,10.36-1.54
			s7.37-2.71,10.92-5.04c3.55-2.33,6.58-5.46,9.1-9.38l-3.36-2.8C765.14,278.49,763.04,280.45,760.43,282.22z M727.46,230.91
			c3.59-3.22,8.1-4.83,13.51-4.83c3.64,0,6.58,1,8.82,3.01s3.85,4.57,4.83,7.7c0.98,3.13,1.47,6.37,1.47,9.73h-35.7
			C721.51,239.33,723.87,234.13,727.46,230.91z"/>
		<path d="M839.67,323.24c0.28-1.59,0.44-3.1,0.49-4.55c0.05-1.45,0.07-3.1,0.07-4.97l-0.14-92.26h-3.92
			c-0.75,0.84-1.56,1.42-2.45,1.75s-1.84,0.49-2.87,0.49c-2.33,0-5.11-0.51-8.33-1.54c-3.22-1.03-6.79-1.54-10.71-1.54
			c-6.63,0-12.67,1.61-18.13,4.83s-9.8,7.72-13.02,13.51c-3.22,5.79-4.83,12.6-4.83,20.44c0,7.19,1.4,13.46,4.2,18.83
			s6.58,9.52,11.34,12.46s10.03,4.41,15.82,4.41c4.48,0,8.49-0.77,12.04-2.31s6.53-3.71,8.96-6.51v21c0,3.36-0.09,6.32-0.28,8.89
			s-0.84,4.57-1.96,6.02c-1.12,1.45-3.13,2.17-6.02,2.17v4.2h28.56v-5.74c-1.49,0.09-2.96,0.16-4.41,0.21
			C842.63,323.07,841.16,323.14,839.67,323.24z M828.19,279.28c-1.87,2.61-4.22,4.76-7.07,6.44c-2.85,1.68-5.81,2.52-8.89,2.52
			c-4.57,0-8.52-1.45-11.83-4.34c-3.31-2.89-5.83-6.77-7.56-11.62s-2.59-10.27-2.59-16.24c0-6.07,0.89-11.36,2.66-15.89
			c1.77-4.53,4.29-8.05,7.56-10.57c3.27-2.52,7.14-3.78,11.62-3.78c4.01,0,7.19,0.63,9.52,1.89s4.01,3.13,5.04,5.6
			c1.03,2.47,1.54,5.58,1.54,9.31L828.19,279.28L828.19,279.28z"/>
		<path d="M914.43,287.54c0.19-1.87,0.33-4.15,0.42-6.86c0.09-2.71,0.14-4.81,0.14-6.3l0.14-52.92h-4.06
			c-1.03,0.93-2.45,1.8-4.27,2.59s-4.74,1.19-8.75,1.19h-4.34v5.74c1.68-0.09,3.36-0.16,5.04-0.21s3.36-0.12,5.04-0.21
			c-0.28,1.59-0.47,3.2-0.56,4.83s-0.14,3.57-0.14,5.81v35.98c-1.96,2.89-4.55,5.39-7.77,7.49c-3.22,2.1-6.6,3.2-10.15,3.29
			c-5.51,0.09-9.4-1.84-11.69-5.81s-3.43-9.96-3.43-17.99v-42.7h-4.06c-1.03,0.93-2.45,1.8-4.27,2.59s-4.74,1.19-8.75,1.19h-4.34
			v5.74c1.59-0.09,3.2-0.16,4.83-0.21s3.24-0.12,4.83-0.21c-0.28,1.59-0.44,3.13-0.49,4.62c-0.05,1.49-0.07,2.99-0.07,4.48v24.92
			c0,7.65,0.86,13.72,2.59,18.2c1.73,4.48,4.29,7.65,7.7,9.52c3.41,1.87,7.63,2.8,12.67,2.8c4.11,0,8.21-1.05,12.32-3.15
			s7.61-4.6,10.5-7.49c0.09,1.21,0.21,2.52,0.35,3.92c0.14,1.4,0.35,2.89,0.63,4.48h20.02v-5.88c-1.68,0.09-3.36,0.19-5.04,0.28
			C917.79,287.35,916.11,287.45,914.43,287.54z"/>
		<path d="M983.73,282.22c-2.61,1.77-5.44,3.17-8.47,4.2c-3.03,1.03-6,1.54-8.89,1.54c-5.41,0-9.85-1.47-13.3-4.41
			s-5.95-7.09-7.49-12.46s-2.31-11.6-2.31-18.69l49.28-0.84c0-5.23-0.75-9.78-2.24-13.65s-3.55-7.09-6.16-9.66s-5.62-4.48-9.03-5.74
			c-3.41-1.26-7.07-1.89-10.99-1.89c-7,0-13.16,1.75-18.48,5.25s-9.45,8.1-12.39,13.79c-2.94,5.69-4.41,11.81-4.41,18.34
			c0,7.56,1.49,14.12,4.48,19.67c2.99,5.55,7.07,9.85,12.25,12.88s10.99,4.55,17.43,4.55c3.17,0,6.63-0.51,10.36-1.54
			s7.37-2.71,10.92-5.04c3.55-2.33,6.58-5.46,9.1-9.38l-3.36-2.8C988.44,278.49,986.34,280.45,983.73,282.22z M950.76,230.91
			c3.59-3.22,8.1-4.83,13.51-4.83c3.64,0,6.58,1,8.82,3.01s3.85,4.57,4.83,7.7c0.98,3.13,1.47,6.37,1.47,9.73h-35.7
			C944.81,239.33,947.16,234.13,950.76,230.91z"/>
		<path d="M1049.11,264.23c-2.15-2.66-4.9-4.88-8.26-6.65c-3.36-1.77-6.81-3.41-10.36-4.9c-3.27-1.31-6.35-2.66-9.24-4.06
			s-5.25-3.06-7.07-4.97s-2.73-4.32-2.73-7.21c0-2.8,1.21-5.27,3.64-7.42s5.79-3.22,10.08-3.22c4.01,0,7.28,1,9.8,3.01
			s4.43,4.53,5.74,7.56c1.31,3.03,2.05,6.18,2.24,9.45h4.48v-24.5h-5.88l0.28,5.32c-2.89-2.33-5.88-3.92-8.96-4.76
			s-5.88-1.26-8.4-1.26c-4.76,0-8.68,0.68-11.76,2.03s-5.51,3.08-7.28,5.18c-1.77,2.1-3.03,4.32-3.78,6.65
			c-0.75,2.33-1.12,4.48-1.12,6.44c0,3.55,0.7,6.53,2.1,8.96c1.4,2.43,3.29,4.48,5.67,6.16s4.97,3.13,7.77,4.34
			c2.8,1.21,5.6,2.38,8.4,3.5c2.89,1.12,5.6,2.33,8.12,3.64c2.52,1.31,4.55,2.82,6.09,4.55c1.54,1.73,2.31,3.9,2.31,6.51
			c0,2.52-0.79,4.6-2.38,6.23s-3.55,2.85-5.88,3.64s-4.71,1.19-7.14,1.19c-3.55,0-6.86-0.84-9.94-2.52s-5.6-4.04-7.56-7.07
			s-3.03-6.46-3.22-10.29h-4.34l0.84,24.08h5.88l-0.56-4.9c2.33,1.59,5.32,3.01,8.96,4.27c3.64,1.26,7.79,1.89,12.46,1.89
			c4.01,0,7.86-0.72,11.55-2.17c3.69-1.45,6.72-3.71,9.1-6.79s3.57-6.95,3.57-11.62C1052.33,270.32,1051.25,266.89,1049.11,264.23z"
			/>
	</g>
</g>
</svg>
